<?xml version="1.0" standalone="no"?>
<!DOCTYPE svg PUBLIC "-//W3C//DTD SVG 20010904//EN"
 "http://www.w3.org/TR/2001/REC-SVG-20010904/DTD/svg10.dtd">
<svg version="1.0" xmlns="http://www.w3.org/2000/svg"
 width="631.000000pt" height="154.000000pt" viewBox="0 0 631.000000 154.000000"
 preserveAspectRatio="xMidYMid meet">

<g transform="translate(0.000000,154.000000) scale(0.100000,-0.100000)"
fill="#000000" stroke="none">
<path d="M2847 1470 c4 -4 33 -15 63 -25 30 -10 80 -30 110 -44 l55 -26 -69
-3 c-37 -2 -175 9 -305 23 -219 25 -256 26 -521 21 -367 -8 -606 -21 -650 -35
-83 -26 -120 -67 -88 -99 6 -6 10 -13 7 -16 -2 -2 -71 18 -154 45 -82 26 -160
48 -173 49 -13 0 -38 -11 -56 -25 -43 -33 -254 -101 -497 -161 l-195 -48 4
-52 c3 -42 0 -59 -17 -82 -27 -38 -27 -40 7 -44 24 -3 18 -8 -51 -46 -63 -35
-77 -47 -71 -60 47 -111 -20 -187 -174 -193 -28 -2 -52 -5 -52 -8 0 -8 146
-68 182 -76 33 -6 35 -21 12 -107 -22 -89 -17 -109 35 -135 81 -41 139 -48
239 -29 l88 17 64 -30 c54 -26 77 -31 138 -31 93 0 184 38 228 95 16 21 43 53
59 72 l30 34 50 -15 c100 -31 494 -50 1934 -93 148 -5 254 8 310 36 l36 19
215 -43 c118 -24 325 -67 460 -95 195 -40 256 -50 300 -45 43 5 81 -1 170 -24
485 -125 605 -154 675 -161 l80 -8 45 47 c41 42 55 50 130 70 47 12 108 32
135 44 39 16 76 22 165 25 101 4 118 7 141 27 27 22 186 77 269 92 l45 8 -65
25 -65 24 45 7 c25 4 66 8 93 8 26 1 47 5 47 10 0 5 -27 37 -61 71 -116 118
-145 196 -99 260 11 16 17 31 13 33 -15 8 -898 296 -983 320 -136 40 -725 139
-1660 282 -589 89 -681 102 -673 95z m347 -86 c9 -3 13 -10 10 -15 -3 -5 0 -9
5 -9 6 0 11 5 11 10 0 13 37 13 45 0 4 -6 14 -8 23 -6 17 6 131 -9 140 -18 2
-3 1 -13 -3 -23 -5 -10 -10 -26 -11 -36 -8 -38 -45 -97 -62 -97 -13 0 -14 -2
-4 -9 11 -6 7 -19 -18 -60 -17 -28 -38 -51 -45 -51 -7 0 -12 -8 -11 -17 1 -12
-5 -17 -16 -15 -10 2 -18 -2 -18 -8 0 -6 5 -8 10 -5 6 3 10 2 10 -2 0 -19
-177 -170 -187 -159 -2 2 5 28 16 57 11 30 23 80 27 112 3 32 13 65 22 73 12
13 13 17 2 24 -7 4 -10 12 -6 18 3 5 8 27 11 48 15 121 16 124 42 124 13 0 21
-4 18 -10 -3 -5 -2 -10 3 -10 6 0 12 6 15 13 3 8 -13 25 -39 41 -24 15 -44 30
-44 32 0 6 36 5 54 -2z m-646 -31 c349 -16 382 -19 382 -34 0 -50 -35 -171
-65 -227 -19 -34 -35 -64 -35 -67 0 -2 32 14 72 36 79 44 177 116 185 136 3 7
8 13 12 13 3 0 -6 -88 -22 -196 -15 -108 -25 -199 -23 -202 10 -9 151 104 246
199 85 83 103 107 153 207 40 77 63 112 75 112 36 0 1020 -179 1317 -240 115
-23 123 -30 154 -123 70 -208 67 -376 -8 -541 -38 -84 -102 -177 -146 -214
l-36 -29 -147 39 c-132 36 -158 40 -257 39 -140 -1 -455 53 -805 139 -147 36
-173 37 -234 9 -77 -34 -231 -41 -541 -24 -284 15 -887 40 -1262 51 -255 8
-235 -4 -203 113 12 40 18 82 14 93 -4 15 7 10 47 -22 58 -45 120 -80 144 -80
21 0 19 17 -4 25 -58 18 -160 277 -161 410 0 22 10 91 22 153 l21 113 46 -7
46 -6 -34 36 c-19 19 -33 37 -30 39 19 17 124 40 219 48 263 21 425 22 858 2z
m572 -31 c0 -5 -9 -27 -20 -49 -21 -44 -122 -142 -128 -124 -2 6 -8 11 -13 11
-4 0 -6 -6 -3 -14 6 -17 -7 -27 -23 -18 -13 8 14 133 31 144 7 5 7 8 -1 8 -14
0 -18 32 -6 43 9 10 163 9 163 -1z m-1946 -37 c17 -18 30 -20 20 -3 -5 8 -2 9
9 5 10 -4 46 -12 82 -18 36 -6 65 -16 66 -23 1 -6 3 -81 5 -166 5 -204 6 -210
15 -210 8 0 24 -58 20 -77 -1 -7 2 -13 7 -13 11 0 44 -71 37 -79 -4 -3 -12 2
-19 12 -7 9 -17 17 -21 17 -13 0 -104 101 -121 133 -8 15 -12 32 -9 37 4 6 0
13 -9 16 -8 3 -27 34 -42 70 -27 61 -54 92 -33 38 5 -15 7 -35 4 -45 -4 -12
-1 -19 7 -19 13 -1 58 -84 58 -107 0 -7 4 -13 8 -13 5 0 21 -25 37 -56 22 -44
29 -71 31 -132 2 -85 -10 -171 -27 -187 -9 -7 -10 -1 -6 23 4 17 3 32 -2 32
-10 0 -34 128 -26 140 4 6 2 10 -3 10 -6 0 -15 23 -22 50 -10 43 -21 58 -74
103 -71 62 -115 91 -136 92 -9 0 -14 7 -12 18 3 18 -14 24 -20 7 -4 -12 -81
13 -86 29 -2 7 -9 6 -23 -2 -15 -9 -24 -9 -41 2 -16 10 -23 10 -26 2 -5 -14
-35 -14 -49 0 -8 8 -17 6 -33 -8 -49 -40 -90 -84 -90 -98 0 -18 -17 -28 -25
-15 -4 6 -11 8 -16 4 -6 -3 -13 4 -16 15 -4 17 -8 19 -20 10 -11 -9 -17 -9
-26 0 -8 8 -8 14 -2 19 6 4 12 48 14 97 2 53 8 93 15 97 6 4 13 2 15 -3 2 -6
-3 -15 -10 -20 -13 -8 -6 -13 13 -10 4 0 10 -22 14 -49 10 -78 20 -59 19 35
-1 60 3 85 11 85 7 0 15 -6 17 -12 4 -8 6 -7 6 3 1 17 77 43 94 32 5 -3 12 -1
16 4 9 13 121 54 132 47 13 -7 11 -44 -2 -44 -5 0 -7 -5 -4 -10 4 -6 10 -8 14
-6 9 6 66 -95 63 -111 -2 -8 3 -10 13 -7 10 4 15 0 15 -15 0 -12 5 -21 10 -21
14 0 13 5 -12 53 -17 32 -22 60 -22 122 -1 79 -1 80 23 77 14 -1 22 1 18 5
-11 11 74 51 110 52 17 1 38 -6 47 -14z m4018 -266 c29 -6 58 -14 63 -18 6 -4
22 -8 36 -9 15 -1 40 -7 55 -14 16 -6 34 -12 39 -13 23 -3 81 -18 90 -23 5 -3
16 -7 25 -7 38 -4 80 -18 80 -27 0 -5 6 -8 13 -5 6 2 35 -4 62 -14 28 -9 65
-20 83 -24 37 -8 53 -32 31 -46 -10 -6 -10 -9 -1 -9 14 0 16 -36 2 -45 -6 -4
-8 -10 -5 -15 3 -5 1 -39 -6 -75 -8 -46 -15 -65 -26 -65 -13 0 -13 -3 -3 -15
7 -8 9 -22 5 -32 -4 -10 -9 -35 -11 -57 -5 -44 -12 -59 -25 -51 -5 4 -9 2 -9
-4 0 -5 5 -11 11 -13 9 -3 9 -10 0 -27 -7 -12 -10 -25 -8 -28 8 -8 48 37 42
47 -8 12 22 70 36 70 6 0 8 7 5 16 -3 9 2 32 12 53 11 20 31 62 45 94 15 31
31 57 37 57 5 0 7 6 4 14 -8 20 23 76 41 76 9 0 23 -16 32 -36 15 -31 15 -37
3 -46 -12 -8 -12 -9 3 -4 14 4 17 -1 18 -27 1 -18 3 -45 4 -62 3 -44 -13 -138
-25 -145 -6 -4 -8 -13 -5 -21 3 -8 -5 -30 -17 -49 -12 -19 -23 -40 -24 -46 -1
-6 -14 -30 -29 -52 -27 -41 -46 -52 -95 -58 -14 -2 -54 -9 -90 -15 -36 -6 -74
-12 -85 -13 -11 -2 -33 -8 -48 -14 -16 -7 -36 -12 -45 -12 -16 1 -16 2 1 14 9
7 17 19 17 26 0 10 -4 9 -17 -2 -10 -8 -24 -18 -31 -23 -20 -11 0 25 27 49 12
11 21 23 21 28 0 13 -42 -21 -117 -93 -34 -32 -66 -59 -72 -59 -6 0 -11 -7
-11 -15 0 -8 -7 -15 -15 -15 -8 0 -15 -6 -15 -14 0 -16 -52 -28 -86 -20 -23 6
-23 7 -7 38 9 17 20 34 26 37 5 4 11 24 12 44 1 22 9 43 19 51 10 7 13 13 6
16 -7 2 -8 13 -1 33 5 17 12 47 16 68 4 24 11 37 22 37 11 0 13 4 5 13 -5 6
-10 32 -10 57 0 25 5 51 10 58 7 8 7 12 -1 12 -15 0 -14 33 1 48 9 9 9 12 0
12 -7 0 -12 8 -12 18 0 10 5 23 12 30 9 9 9 12 -1 12 -7 0 -15 -9 -18 -19 -3
-13 -10 -18 -21 -13 -15 5 -15 4 -3 -11 11 -13 11 -23 3 -40 -5 -12 -20 -48
-32 -79 -17 -43 -26 -55 -38 -51 -12 5 -14 2 -9 -11 4 -10 3 -25 -3 -35 -17
-32 -82 -106 -94 -106 -6 -1 -10 -7 -8 -14 1 -7 -6 -15 -17 -18 -11 -3 -22
-11 -25 -19 -3 -8 -12 -14 -21 -14 -8 0 -15 -4 -15 -10 0 -13 -74 -50 -100
-50 -28 0 -26 20 3 21 12 0 16 3 9 6 -8 3 -1 21 25 56 21 29 41 54 45 55 5 2
8 10 8 18 0 25 44 104 58 104 9 0 12 6 8 17 -9 22 13 85 27 76 7 -4 8 0 4 11
-11 29 15 146 33 147 10 0 11 2 3 6 -7 2 -13 16 -13 29 0 13 6 24 13 25 10 0
10 2 0 6 -16 6 -17 53 -2 53 6 0 3 7 -5 16 -9 8 -16 30 -16 48 0 18 -4 57 -10
86 -5 29 -7 56 -4 61 7 12 32 11 96 -2z m-4186 -124 c97 -50 144 -91 182 -164
34 -62 72 -193 72 -244 0 -24 -3 -28 -17 -22 -10 5 -60 22 -110 39 l-93 31 0
36 c0 21 7 42 16 49 8 8 20 23 26 34 9 17 8 19 -3 9 -20 -19 -31 -16 -29 10 5
59 -13 60 -25 1 -26 -139 -150 -365 -219 -398 -38 -18 -80 -14 -137 15 -67 33
-67 35 -35 179 9 36 20 126 26 200 14 173 22 201 67 240 36 32 37 33 121 27
72 -4 96 -11 158 -42z m-416 -65 c21 -11 41 -24 45 -29 3 -5 -4 -85 -16 -178
-20 -162 -22 -169 -53 -201 -17 -18 -58 -47 -92 -63 -52 -26 -70 -30 -129 -27
-60 3 -70 6 -88 29 -19 27 -19 27 3 95 50 149 142 319 201 369 37 30 76 32
129 5z m4620 -539 c-33 -132 -59 -193 -78 -187 -10 2 -52 12 -94 21 -43 9 -78
18 -78 20 0 2 24 14 53 28 64 30 133 90 178 155 19 28 35 49 37 47 2 -1 -6
-39 -18 -84z"/>
<path d="M3240 1340 c0 -5 5 -10 11 -10 5 0 7 5 4 10 -3 6 -8 10 -11 10 -2 0
-4 -4 -4 -10z"/>
<path d="M3310 1340 c0 -5 5 -10 11 -10 5 0 7 5 4 10 -3 6 -8 10 -11 10 -2 0
-4 -4 -4 -10z"/>
<path d="M3275 1310 c-3 -5 -1 -10 4 -10 6 0 11 5 11 10 0 6 -2 10 -4 10 -3 0
-8 -4 -11 -10z"/>
<path d="M3345 1310 c-3 -5 -1 -10 4 -10 6 0 11 5 11 10 0 6 -2 10 -4 10 -3 0
-8 -4 -11 -10z"/>
<path d="M3170 1280 c0 -5 5 -10 11 -10 5 0 7 5 4 10 -3 6 -8 10 -11 10 -2 0
-4 -4 -4 -10z"/>
<path d="M3240 1280 c0 -5 5 -10 11 -10 5 0 7 5 4 10 -3 6 -8 10 -11 10 -2 0
-4 -4 -4 -10z"/>
<path d="M3170 1149 c0 -5 5 -7 10 -4 6 3 10 8 10 11 0 2 -4 4 -10 4 -5 0 -10
-5 -10 -11z"/>
<path d="M3240 1149 c0 -5 5 -7 10 -4 6 3 10 8 10 11 0 2 -4 4 -10 4 -5 0 -10
-5 -10 -11z"/>
<path d="M3310 1149 c0 -5 5 -7 10 -4 6 3 10 8 10 11 0 2 -4 4 -10 4 -5 0 -10
-5 -10 -11z"/>
<path d="M3205 1120 c3 -5 8 -10 11 -10 2 0 4 5 4 10 0 6 -5 10 -11 10 -5 0
-7 -4 -4 -10z"/>
<path d="M3275 1120 c3 -5 8 -10 11 -10 2 0 4 5 4 10 0 6 -5 10 -11 10 -5 0
-7 -4 -4 -10z"/>
<path d="M3170 1089 c0 -5 5 -7 10 -4 6 3 10 8 10 11 0 2 -4 4 -10 4 -5 0 -10
-5 -10 -11z"/>
<path d="M3240 1089 c0 -5 5 -7 10 -4 6 3 10 8 10 11 0 2 -4 4 -10 4 -5 0 -10
-5 -10 -11z"/>
<path d="M3130 1060 c0 -5 5 -10 10 -10 6 0 10 5 10 10 0 6 -4 10 -10 10 -5 0
-10 -4 -10 -10z"/>
<path d="M3200 1060 c0 -5 5 -10 10 -10 6 0 10 5 10 10 0 6 -4 10 -10 10 -5 0
-10 -4 -10 -10z"/>
<path d="M3130 1000 c0 -5 5 -10 10 -10 6 0 10 5 10 10 0 6 -4 10 -10 10 -5 0
-10 -4 -10 -10z"/>
<path d="M3200 1000 c0 -5 5 -10 10 -10 6 0 10 5 10 10 0 6 -4 10 -10 10 -5 0
-10 -4 -10 -10z"/>
<path d="M3130 940 c0 -5 5 -10 10 -10 6 0 10 5 10 10 0 6 -4 10 -10 10 -5 0
-10 -4 -10 -10z"/>
<path d="M2196 1248 c3 -4 20 -8 37 -8 18 0 73 -7 122 -16 203 -35 240 -52
353 -165 34 -34 62 -59 62 -55 0 14 -87 141 -113 164 -46 43 -151 74 -262 78
-55 3 -123 6 -152 7 -29 2 -50 0 -47 -5z"/>
<path d="M2075 1224 c-16 -2 -68 -14 -115 -25 -80 -19 -91 -19 -175 -6 -50 8
-92 13 -94 11 -2 -2 22 -15 55 -30 l59 -26 -29 -15 c-16 -9 -61 -21 -100 -28
-55 -11 -66 -15 -48 -21 32 -9 9 -24 -40 -24 -20 0 -39 -4 -42 -9 -7 -11 52
-21 127 -21 33 0 57 -4 57 -11 0 -5 6 -7 13 -4 6 4 2 -3 -11 -14 -13 -11 -63
-35 -110 -53 -85 -32 -86 -33 -47 -36 22 -1 72 6 111 16 l72 19 42 -64 c44
-68 198 -226 240 -248 37 -19 123 -35 185 -35 75 0 199 18 238 35 l32 15 -40
-6 c-158 -21 -247 -21 -347 1 -93 21 -313 272 -293 335 8 24 62 65 127 95 71
33 79 33 67 -7 -48 -168 99 -340 290 -341 84 -1 140 24 203 87 51 53 78 100
78 140 0 36 17 32 56 -11 18 -21 51 -58 73 -83 l39 -45 -9 50 c-20 108 -75
176 -205 253 -134 79 -331 125 -459 106z m215 -174 c22 -11 40 -27 40 -36 0
-19 -29 -77 -43 -86 -13 -8 -107 38 -107 53 0 22 41 89 56 89 8 0 33 -9 54
-20z m200 -133 c0 -15 -3 -16 -20 -7 -17 9 -18 14 -9 32 9 17 13 18 20 7 5 -8
9 -22 9 -32z m-5 -47 c12 -19 -12 -10 -31 11 -19 22 -19 22 3 10 12 -6 25 -16
28 -21z m-36 -14 c17 -18 19 -26 10 -32 -7 -4 -19 2 -31 16 -34 42 -17 56 21
16z m-41 -21 c7 -14 12 -30 12 -34 0 -14 -77 -41 -115 -41 -32 0 -35 3 -35 29
0 26 4 30 39 36 22 3 47 13 58 20 25 20 28 19 41 -10z m-247 5 c5 0 9 -9 9
-21 0 -26 -18 -21 -39 11 -15 23 -15 24 2 17 10 -4 23 -7 28 -7z m47 -32 c-5
-32 -28 -35 -28 -4 0 17 5 26 16 26 10 0 14 -7 12 -22z m48 -5 c-3 -8 -6 -19
-6 -24 0 -5 -6 -9 -13 -9 -9 0 -12 9 -9 29 3 21 8 28 19 24 8 -3 12 -12 9 -20z"/>
<path d="M3992 1134 c-124 -42 -222 -100 -317 -188 -50 -45 -50 -45 48 18 118
77 242 140 340 172 61 19 67 23 37 23 -19 0 -68 -11 -108 -25z"/>
<path d="M4085 1082 c-128 -39 -201 -87 -342 -226 -68 -66 -93 -97 -93 -115 0
-24 3 -23 48 20 46 45 104 89 116 89 3 0 6 -16 6 -35 0 -78 49 -148 135 -193
44 -24 62 -27 145 -27 109 0 160 19 223 81 49 49 68 94 80 186 6 43 15 78 21
78 15 0 126 -88 133 -105 10 -28 -38 -101 -129 -197 -119 -124 -145 -134 -353
-132 -79 1 -129 -2 -115 -6 14 -5 92 -8 174 -9 l149 -1 75 36 c72 35 165 113
205 173 19 28 69 39 197 41 l85 2 -82 21 c-46 11 -83 24 -83 28 0 9 64 19 125
19 l50 0 -80 36 c-44 19 -92 40 -107 46 -16 5 -28 13 -28 17 0 4 48 18 108 30
127 27 162 43 77 35 -64 -7 -244 11 -258 25 -5 5 22 14 60 21 l68 13 -140 29
c-185 38 -381 47 -470 20z m66 -194 c9 -14 -31 -98 -47 -98 -21 0 -104 41
-104 51 0 11 28 68 42 86 7 9 21 7 56 -8 26 -11 50 -25 53 -31z m169 -88 c0
-22 -1 -23 -16 -8 -11 10 -14 23 -9 38 6 18 9 20 16 9 5 -8 9 -25 9 -39z m-37
-44 c9 -7 17 -21 17 -31 0 -16 -3 -16 -25 5 -37 35 -31 55 8 26z m-23 -46 l21
-30 -47 -30 c-53 -34 -79 -38 -88 -14 -12 31 -6 44 27 57 17 8 38 21 46 30 17
22 16 22 41 -13z m-233 -28 c12 -8 7 -52 -6 -52 -4 0 -16 6 -26 14 -33 24 -2
60 32 38z m54 -15 c-1 -4 -1 -16 -1 -27 0 -11 -7 -20 -15 -20 -17 0 -18 4 -9
38 6 20 27 28 25 9z m47 -25 c2 -24 -1 -32 -12 -32 -12 0 -16 10 -16 36 0 45
24 42 28 -4z"/>
<path d="M1740 741 c0 -18 56 -69 65 -60 2 2 -12 21 -31 41 -27 30 -34 34 -34
19z"/>
<path d="M1833 706 c27 -25 54 -46 60 -46 13 1 -28 37 -78 71 -17 12 -10 1 18
-25z"/>
<path d="M2631 695 c-59 -39 -70 -43 -50 -18 12 15 12 16 -1 8 -8 -5 -37 -26
-63 -47 -54 -42 -41 -51 28 -19 42 19 165 111 149 111 -5 0 -33 -16 -63 -35z"/>
<path d="M4538 618 c-81 -84 -100 -115 -47 -77 48 34 107 99 118 131 5 15 9
28 8 28 -1 -1 -37 -37 -79 -82z"/>
<path d="M4715 622 c-22 -20 -53 -47 -70 -59 -44 -33 -16 -28 37 6 26 17 54
44 63 60 8 17 14 31 13 31 -2 0 -21 -17 -43 -38z"/>
<path d="M3705 589 c33 -33 78 -75 99 -92 32 -26 37 -27 27 -9 -11 21 -10 21
15 12 15 -6 28 -9 30 -7 5 4 -212 157 -222 157 -5 0 18 -27 51 -61z"/>
<path d="M4730 569 c-49 -42 -47 -51 5 -19 29 18 51 47 43 55 -2 2 -23 -15
-48 -36z"/>
<path d="M2990 1310 c0 -5 5 -10 11 -10 5 0 7 5 4 10 -3 6 -8 10 -11 10 -2 0
-4 -4 -4 -10z"/>
<path d="M3025 1280 c-3 -5 -1 -10 4 -10 6 0 11 5 11 10 0 6 -2 10 -4 10 -3 0
-8 -4 -11 -10z"/>
<path d="M1110 1280 c0 -5 5 -10 11 -10 5 0 7 5 4 10 -3 6 -8 10 -11 10 -2 0
-4 -4 -4 -10z"/>
<path d="M1215 1180 c3 -5 8 -10 11 -10 2 0 4 5 4 10 0 6 -5 10 -11 10 -5 0
-7 -4 -4 -10z"/>
<path d="M825 1150 c3 -5 8 -10 11 -10 2 0 4 5 4 10 0 6 -5 10 -11 10 -5 0 -7
-4 -4 -10z"/>
<path d="M1110 1149 c0 -5 5 -7 10 -4 6 3 10 8 10 11 0 2 -4 4 -10 4 -5 0 -10
-5 -10 -11z"/>
<path d="M1180 1149 c0 -5 5 -7 10 -4 6 3 10 8 10 11 0 2 -4 4 -10 4 -5 0 -10
-5 -10 -11z"/>
<path d="M1250 1149 c0 -5 5 -7 10 -4 6 3 10 8 10 11 0 2 -4 4 -10 4 -5 0 -10
-5 -10 -11z"/>
<path d="M1320 1149 c0 -5 5 -7 10 -4 6 3 10 8 10 11 0 2 -4 4 -10 4 -5 0 -10
-5 -10 -11z"/>
<path d="M790 1119 c0 -5 5 -7 10 -4 6 3 10 8 10 11 0 2 -4 4 -10 4 -5 0 -10
-5 -10 -11z"/>
<path d="M860 1119 c0 -5 5 -7 10 -4 6 3 10 8 10 11 0 2 -4 4 -10 4 -5 0 -10
-5 -10 -11z"/>
<path d="M1000 1119 c0 -5 5 -7 10 -4 6 3 10 8 10 11 0 2 -4 4 -10 4 -5 0 -10
-5 -10 -11z"/>
<path d="M1070 1120 c0 -5 5 -10 10 -10 6 0 10 5 10 10 0 6 -4 10 -10 10 -5 0
-10 -4 -10 -10z"/>
<path d="M1145 1120 c3 -5 8 -10 11 -10 2 0 4 5 4 10 0 6 -5 10 -11 10 -5 0
-7 -4 -4 -10z"/>
<path d="M1215 1120 c3 -5 8 -10 11 -10 2 0 4 5 4 10 0 6 -5 10 -11 10 -5 0
-7 -4 -4 -10z"/>
<path d="M1285 1120 c3 -5 8 -10 11 -10 2 0 4 5 4 10 0 6 -5 10 -11 10 -5 0
-7 -4 -4 -10z"/>
<path d="M680 1090 c0 -5 5 -10 10 -10 6 0 10 5 10 10 0 6 -4 10 -10 10 -5 0
-10 -4 -10 -10z"/>
<path d="M750 1090 c0 -5 5 -10 10 -10 6 0 10 5 10 10 0 6 -4 10 -10 10 -5 0
-10 -4 -10 -10z"/>
<path d="M825 1090 c3 -5 8 -10 11 -10 2 0 4 5 4 10 0 6 -5 10 -11 10 -5 0 -7
-4 -4 -10z"/>
<path d="M895 1090 c3 -5 8 -10 11 -10 2 0 4 5 4 10 0 6 -5 10 -11 10 -5 0 -7
-4 -4 -10z"/>
<path d="M1110 1089 c0 -5 5 -7 10 -4 6 3 10 8 10 11 0 2 -4 4 -10 4 -5 0 -10
-5 -10 -11z"/>
<path d="M1180 1089 c0 -5 5 -7 10 -4 6 3 10 8 10 11 0 2 -4 4 -10 4 -5 0 -10
-5 -10 -11z"/>
<path d="M1250 1089 c0 -5 5 -7 10 -4 6 3 10 8 10 11 0 2 -4 4 -10 4 -5 0 -10
-5 -10 -11z"/>
<path d="M1320 1089 c0 -5 5 -7 10 -4 6 3 10 8 10 11 0 2 -4 4 -10 4 -5 0 -10
-5 -10 -11z"/>
<path d="M790 1059 c0 -5 5 -7 10 -4 6 3 10 8 10 11 0 2 -4 4 -10 4 -5 0 -10
-5 -10 -11z"/>
<path d="M860 1059 c0 -5 5 -7 10 -4 6 3 10 8 10 11 0 2 -4 4 -10 4 -5 0 -10
-5 -10 -11z"/>
<path d="M930 1060 c0 -5 5 -10 10 -10 6 0 10 5 10 10 0 6 -4 10 -10 10 -5 0
-10 -4 -10 -10z"/>
<path d="M1000 1060 c0 -5 5 -10 10 -10 6 0 10 5 10 10 0 6 -4 10 -10 10 -5 0
-10 -4 -10 -10z"/>
<path d="M1070 1060 c0 -5 5 -10 10 -10 6 0 10 5 10 10 0 6 -4 10 -10 10 -5 0
-10 -4 -10 -10z"/>
<path d="M1140 1060 c0 -5 5 -10 10 -10 6 0 10 5 10 10 0 6 -4 10 -10 10 -5 0
-10 -4 -10 -10z"/>
<path d="M1215 1060 c3 -5 8 -10 11 -10 2 0 4 5 4 10 0 6 -5 10 -11 10 -5 0
-7 -4 -4 -10z"/>
<path d="M1285 1060 c3 -5 8 -10 11 -10 2 0 4 5 4 10 0 6 -5 10 -11 10 -5 0
-7 -4 -4 -10z"/>
<path d="M680 1030 c0 -5 5 -10 10 -10 6 0 10 5 10 10 0 6 -4 10 -10 10 -5 0
-10 -4 -10 -10z"/>
<path d="M750 1030 c0 -5 5 -10 10 -10 6 0 10 5 10 10 0 6 -4 10 -10 10 -5 0
-10 -4 -10 -10z"/>
<path d="M820 1030 c0 -5 5 -10 10 -10 6 0 10 5 10 10 0 6 -4 10 -10 10 -5 0
-10 -4 -10 -10z"/>
<path d="M890 1030 c0 -5 5 -10 10 -10 6 0 10 5 10 10 0 6 -4 10 -10 10 -5 0
-10 -4 -10 -10z"/>
<path d="M1250 1030 c0 -5 5 -10 10 -10 6 0 10 5 10 10 0 6 -4 10 -10 10 -5 0
-10 -4 -10 -10z"/>
<path d="M1320 1030 c0 -5 5 -10 10 -10 6 0 10 5 10 10 0 6 -4 10 -10 10 -5 0
-10 -4 -10 -10z"/>
<path d="M570 1000 c0 -5 5 -10 10 -10 6 0 10 5 10 10 0 6 -4 10 -10 10 -5 0
-10 -4 -10 -10z"/>
<path d="M790 999 c0 -5 5 -7 10 -4 6 3 10 8 10 11 0 2 -4 4 -10 4 -5 0 -10
-5 -10 -11z"/>
<path d="M860 999 c0 -5 5 -7 10 -4 6 3 10 8 10 11 0 2 -4 4 -10 4 -5 0 -10
-5 -10 -11z"/>
<path d="M930 1000 c0 -5 5 -10 10 -10 6 0 10 5 10 10 0 6 -4 10 -10 10 -5 0
-10 -4 -10 -10z"/>
<path d="M1070 1000 c0 -5 5 -10 10 -10 6 0 10 5 10 10 0 6 -4 10 -10 10 -5 0
-10 -4 -10 -10z"/>
<path d="M1140 1000 c0 -5 5 -10 10 -10 6 0 10 5 10 10 0 6 -4 10 -10 10 -5 0
-10 -4 -10 -10z"/>
<path d="M1215 1000 c3 -5 8 -10 11 -10 2 0 4 5 4 10 0 6 -5 10 -11 10 -5 0
-7 -4 -4 -10z"/>
<path d="M1285 1000 c3 -5 8 -10 11 -10 2 0 4 5 4 10 0 6 -5 10 -11 10 -5 0
-7 -4 -4 -10z"/>
<path d="M680 970 c0 -5 5 -10 10 -10 6 0 10 5 10 10 0 6 -4 10 -10 10 -5 0
-10 -4 -10 -10z"/>
<path d="M1250 970 c0 -5 5 -10 10 -10 6 0 10 5 10 10 0 6 -4 10 -10 10 -5 0
-10 -4 -10 -10z"/>
<path d="M1320 970 c0 -5 5 -10 10 -10 6 0 10 5 10 10 0 6 -4 10 -10 10 -5 0
-10 -4 -10 -10z"/>
<path d="M575 940 c-3 -5 -1 -10 4 -10 6 0 11 5 11 10 0 6 -2 10 -4 10 -3 0
-8 -4 -11 -10z"/>
<path d="M1070 940 c0 -5 5 -10 10 -10 6 0 10 5 10 10 0 6 -4 10 -10 10 -5 0
-10 -4 -10 -10z"/>
<path d="M1140 940 c0 -5 5 -10 10 -10 6 0 10 5 10 10 0 6 -4 10 -10 10 -5 0
-10 -4 -10 -10z"/>
<path d="M610 910 c0 -5 5 -10 10 -10 6 0 10 5 10 10 0 6 -4 10 -10 10 -5 0
-10 -4 -10 -10z"/>
<path d="M1110 910 c0 -5 5 -10 11 -10 5 0 7 5 4 10 -3 6 -8 10 -11 10 -2 0
-4 -4 -4 -10z"/>
<path d="M1180 910 c0 -5 5 -10 11 -10 5 0 7 5 4 10 -3 6 -8 10 -11 10 -2 0
-4 -4 -4 -10z"/>
<path d="M1320 910 c0 -5 5 -10 10 -10 6 0 10 5 10 10 0 6 -4 10 -10 10 -5 0
-10 -4 -10 -10z"/>
<path d="M1145 880 c-3 -5 -1 -10 4 -10 6 0 11 5 11 10 0 6 -2 10 -4 10 -3 0
-8 -4 -11 -10z"/>
<path d="M1215 880 c-3 -5 -1 -10 4 -10 6 0 11 5 11 10 0 6 -2 10 -4 10 -3 0
-8 -4 -11 -10z"/>
<path d="M1285 880 c-3 -5 -1 -10 4 -10 6 0 11 5 11 10 0 6 -2 10 -4 10 -3 0
-8 -4 -11 -10z"/>
<path d="M1180 850 c0 -5 5 -10 11 -10 5 0 7 5 4 10 -3 6 -8 10 -11 10 -2 0
-4 -4 -4 -10z"/>
<path d="M1320 850 c0 -5 5 -10 11 -10 5 0 7 5 4 10 -3 6 -8 10 -11 10 -2 0
-4 -4 -4 -10z"/>
<path d="M1215 820 c-3 -5 -1 -10 4 -10 6 0 11 5 11 10 0 6 -2 10 -4 10 -3 0
-8 -4 -11 -10z"/>
<path d="M1250 790 c0 -5 5 -10 11 -10 5 0 7 5 4 10 -3 6 -8 10 -11 10 -2 0
-4 -4 -4 -10z"/>
<path d="M1285 630 c3 -5 8 -10 11 -10 2 0 4 5 4 10 0 6 -5 10 -11 10 -5 0 -7
-4 -4 -10z"/>
<path d="M1285 570 c3 -5 8 -10 11 -10 2 0 4 5 4 10 0 6 -5 10 -11 10 -5 0 -7
-4 -4 -10z"/>
<path d="M5120 1000 c0 -5 5 -10 10 -10 6 0 10 5 10 10 0 6 -4 10 -10 10 -5 0
-10 -4 -10 -10z"/>
<path d="M5190 1000 c0 -5 5 -10 10 -10 6 0 10 5 10 10 0 6 -4 10 -10 10 -5 0
-10 -4 -10 -10z"/>
<path d="M5300 970 c0 -5 5 -10 11 -10 5 0 7 5 4 10 -3 6 -8 10 -11 10 -2 0
-4 -4 -4 -10z"/>
<path d="M5120 940 c0 -5 5 -10 10 -10 6 0 10 5 10 10 0 6 -4 10 -10 10 -5 0
-10 -4 -10 -10z"/>
<path d="M5190 940 c0 -5 5 -10 10 -10 6 0 10 5 10 10 0 6 -4 10 -10 10 -5 0
-10 -4 -10 -10z"/>
<path d="M5260 940 c0 -5 5 -10 10 -10 6 0 10 5 10 10 0 6 -4 10 -10 10 -5 0
-10 -4 -10 -10z"/>
<path d="M5330 940 c0 -5 5 -10 10 -10 6 0 10 5 10 10 0 6 -4 10 -10 10 -5 0
-10 -4 -10 -10z"/>
<path d="M5405 940 c-3 -5 -1 -10 4 -10 6 0 11 5 11 10 0 6 -2 10 -4 10 -3 0
-8 -4 -11 -10z"/>
<path d="M5300 910 c0 -5 5 -10 11 -10 5 0 7 5 4 10 -3 6 -8 10 -11 10 -2 0
-4 -4 -4 -10z"/>
<path d="M5370 910 c0 -5 5 -10 11 -10 5 0 7 5 4 10 -3 6 -8 10 -11 10 -2 0
-4 -4 -4 -10z"/>
<path d="M5440 910 c0 -5 5 -10 10 -10 6 0 10 5 10 10 0 6 -4 10 -10 10 -5 0
-10 -4 -10 -10z"/>
<path d="M5510 910 c0 -5 5 -10 10 -10 6 0 10 5 10 10 0 6 -4 10 -10 10 -5 0
-10 -4 -10 -10z"/>
<path d="M5120 880 c0 -5 5 -10 10 -10 6 0 10 5 10 10 0 6 -4 10 -10 10 -5 0
-10 -4 -10 -10z"/>
<path d="M5190 880 c0 -5 5 -10 10 -10 6 0 10 5 10 10 0 6 -4 10 -10 10 -5 0
-10 -4 -10 -10z"/>
<path d="M5265 880 c-3 -5 -1 -10 4 -10 6 0 11 5 11 10 0 6 -2 10 -4 10 -3 0
-8 -4 -11 -10z"/>
<path d="M5335 880 c-3 -5 -1 -10 4 -10 6 0 11 5 11 10 0 6 -2 10 -4 10 -3 0
-8 -4 -11 -10z"/>
<path d="M5405 880 c-3 -5 -1 -10 4 -10 6 0 11 5 11 10 0 6 -2 10 -4 10 -3 0
-8 -4 -11 -10z"/>
<path d="M5550 880 c0 -5 5 -10 11 -10 5 0 7 5 4 10 -3 6 -8 10 -11 10 -2 0
-4 -4 -4 -10z"/>
<path d="M5620 880 c0 -5 5 -10 11 -10 5 0 7 5 4 10 -3 6 -8 10 -11 10 -2 0
-4 -4 -4 -10z"/>
<path d="M5230 850 c0 -5 5 -10 11 -10 5 0 7 5 4 10 -3 6 -8 10 -11 10 -2 0
-4 -4 -4 -10z"/>
<path d="M5300 850 c0 -5 5 -10 11 -10 5 0 7 5 4 10 -3 6 -8 10 -11 10 -2 0
-4 -4 -4 -10z"/>
<path d="M5370 850 c0 -5 5 -10 11 -10 5 0 7 5 4 10 -3 6 -8 10 -11 10 -2 0
-4 -4 -4 -10z"/>
<path d="M5440 850 c0 -5 5 -10 11 -10 5 0 7 5 4 10 -3 6 -8 10 -11 10 -2 0
-4 -4 -4 -10z"/>
<path d="M5515 850 c-3 -5 -1 -10 4 -10 6 0 11 5 11 10 0 6 -2 10 -4 10 -3 0
-8 -4 -11 -10z"/>
<path d="M5585 850 c-3 -5 -1 -10 4 -10 6 0 11 5 11 10 0 6 -2 10 -4 10 -3 0
-8 -4 -11 -10z"/>
<path d="M5655 850 c-3 -5 -1 -10 4 -10 6 0 11 5 11 10 0 6 -2 10 -4 10 -3 0
-8 -4 -11 -10z"/>
<path d="M5725 850 c-3 -5 -1 -10 4 -10 6 0 11 5 11 10 0 6 -2 10 -4 10 -3 0
-8 -4 -11 -10z"/>
<path d="M5405 820 c-3 -5 -1 -10 4 -10 6 0 11 5 11 10 0 6 -2 10 -4 10 -3 0
-8 -4 -11 -10z"/>
<path d="M5475 820 c-3 -5 -1 -10 4 -10 6 0 11 5 11 10 0 6 -2 10 -4 10 -3 0
-8 -4 -11 -10z"/>
<path d="M5550 820 c0 -5 5 -10 11 -10 5 0 7 5 4 10 -3 6 -8 10 -11 10 -2 0
-4 -4 -4 -10z"/>
<path d="M5690 820 c0 -5 5 -10 11 -10 5 0 7 5 4 10 -3 6 -8 10 -11 10 -2 0
-4 -4 -4 -10z"/>
<path d="M5230 790 c0 -5 5 -10 11 -10 5 0 7 5 4 10 -3 6 -8 10 -11 10 -2 0
-4 -4 -4 -10z"/>
<path d="M5300 790 c0 -5 5 -10 11 -10 5 0 7 5 4 10 -3 6 -8 10 -11 10 -2 0
-4 -4 -4 -10z"/>
<path d="M5725 790 c-3 -5 -1 -10 4 -10 6 0 11 5 11 10 0 6 -2 10 -4 10 -3 0
-8 -4 -11 -10z"/>
<path d="M5335 690 c3 -5 8 -10 11 -10 2 0 4 5 4 10 0 6 -5 10 -11 10 -5 0 -7
-4 -4 -10z"/>
<path d="M5475 690 c3 -5 8 -10 11 -10 2 0 4 5 4 10 0 6 -5 10 -11 10 -5 0 -7
-4 -4 -10z"/>
<path d="M5160 659 c0 -5 5 -7 10 -4 6 3 10 8 10 11 0 2 -4 4 -10 4 -5 0 -10
-5 -10 -11z"/>
<path d="M5230 659 c0 -5 5 -7 10 -4 6 3 10 8 10 11 0 2 -4 4 -10 4 -5 0 -10
-5 -10 -11z"/>
<path d="M5370 659 c0 -5 5 -7 10 -4 6 3 10 8 10 11 0 2 -4 4 -10 4 -5 0 -10
-5 -10 -11z"/>
<path d="M5440 659 c0 -5 5 -7 10 -4 6 3 10 8 10 11 0 2 -4 4 -10 4 -5 0 -10
-5 -10 -11z"/>
<path d="M5655 660 c3 -5 8 -10 11 -10 2 0 4 5 4 10 0 6 -5 10 -11 10 -5 0 -7
-4 -4 -10z"/>
<path d="M5725 660 c3 -5 8 -10 11 -10 2 0 4 5 4 10 0 6 -5 10 -11 10 -5 0 -7
-4 -4 -10z"/>
<path d="M5940 659 c0 -5 5 -7 10 -4 6 3 10 8 10 11 0 2 -4 4 -10 4 -5 0 -10
-5 -10 -11z"/>
<path d="M5120 629 c0 -5 5 -7 10 -4 6 3 10 8 10 11 0 2 -4 4 -10 4 -5 0 -10
-5 -10 -11z"/>
<path d="M5335 630 c3 -5 8 -10 11 -10 2 0 4 5 4 10 0 6 -5 10 -11 10 -5 0 -7
-4 -4 -10z"/>
<path d="M5405 630 c3 -5 8 -10 11 -10 2 0 4 5 4 10 0 6 -5 10 -11 10 -5 0 -7
-4 -4 -10z"/>
<path d="M5620 629 c0 -5 5 -7 10 -4 6 3 10 8 10 11 0 2 -4 4 -10 4 -5 0 -10
-5 -10 -11z"/>
<path d="M5690 629 c0 -5 5 -7 10 -4 6 3 10 8 10 11 0 2 -4 4 -10 4 -5 0 -10
-5 -10 -11z"/>
<path d="M5830 629 c0 -5 5 -7 10 -4 6 3 10 8 10 11 0 2 -4 4 -10 4 -5 0 -10
-5 -10 -11z"/>
<path d="M5905 630 c3 -5 8 -10 11 -10 2 0 4 5 4 10 0 6 -5 10 -11 10 -5 0 -7
-4 -4 -10z"/>
<path d="M5230 599 c0 -5 5 -7 10 -4 6 3 10 8 10 11 0 2 -4 4 -10 4 -5 0 -10
-5 -10 -11z"/>
<path d="M5370 599 c0 -5 5 -7 10 -4 6 3 10 8 10 11 0 2 -4 4 -10 4 -5 0 -10
-5 -10 -11z"/>
<path d="M5440 599 c0 -5 5 -7 10 -4 6 3 10 8 10 11 0 2 -4 4 -10 4 -5 0 -10
-5 -10 -11z"/>
<path d="M5510 600 c0 -5 5 -10 10 -10 6 0 10 5 10 10 0 6 -4 10 -10 10 -5 0
-10 -4 -10 -10z"/>
<path d="M5580 600 c0 -5 5 -10 10 -10 6 0 10 5 10 10 0 6 -4 10 -10 10 -5 0
-10 -4 -10 -10z"/>
<path d="M5655 600 c3 -5 8 -10 11 -10 2 0 4 5 4 10 0 6 -5 10 -11 10 -5 0 -7
-4 -4 -10z"/>
<path d="M5940 599 c0 -5 5 -7 10 -4 6 3 10 8 10 11 0 2 -4 4 -10 4 -5 0 -10
-5 -10 -11z"/>
<path d="M5120 570 c0 -5 5 -10 10 -10 6 0 10 5 10 10 0 6 -4 10 -10 10 -5 0
-10 -4 -10 -10z"/>
<path d="M5190 570 c0 -5 5 -10 10 -10 6 0 10 5 10 10 0 6 -4 10 -10 10 -5 0
-10 -4 -10 -10z"/>
<path d="M5335 570 c3 -5 8 -10 11 -10 2 0 4 5 4 10 0 6 -5 10 -11 10 -5 0 -7
-4 -4 -10z"/>
<path d="M5405 570 c3 -5 8 -10 11 -10 2 0 4 5 4 10 0 6 -5 10 -11 10 -5 0 -7
-4 -4 -10z"/>
<path d="M5475 570 c3 -5 8 -10 11 -10 2 0 4 5 4 10 0 6 -5 10 -11 10 -5 0 -7
-4 -4 -10z"/>
<path d="M5620 569 c0 -5 5 -7 10 -4 6 3 10 8 10 11 0 2 -4 4 -10 4 -5 0 -10
-5 -10 -11z"/>
<path d="M5690 569 c0 -5 5 -7 10 -4 6 3 10 8 10 11 0 2 -4 4 -10 4 -5 0 -10
-5 -10 -11z"/>
<path d="M5830 570 c0 -5 5 -10 10 -10 6 0 10 5 10 10 0 6 -4 10 -10 10 -5 0
-10 -4 -10 -10z"/>
<path d="M5900 570 c0 -5 5 -10 10 -10 6 0 10 5 10 10 0 6 -4 10 -10 10 -5 0
-10 -4 -10 -10z"/>
<path d="M5370 540 c0 -5 5 -10 10 -10 6 0 10 5 10 10 0 6 -4 10 -10 10 -5 0
-10 -4 -10 -10z"/>
<path d="M5440 540 c0 -5 5 -10 10 -10 6 0 10 5 10 10 0 6 -4 10 -10 10 -5 0
-10 -4 -10 -10z"/>
<path d="M5510 540 c0 -5 5 -10 10 -10 6 0 10 5 10 10 0 6 -4 10 -10 10 -5 0
-10 -4 -10 -10z"/>
<path d="M5580 540 c0 -5 5 -10 10 -10 6 0 10 5 10 10 0 6 -4 10 -10 10 -5 0
-10 -4 -10 -10z"/>
<path d="M5650 540 c0 -5 5 -10 10 -10 6 0 10 5 10 10 0 6 -4 10 -10 10 -5 0
-10 -4 -10 -10z"/>
<path d="M5120 510 c0 -5 5 -10 10 -10 6 0 10 5 10 10 0 6 -4 10 -10 10 -5 0
-10 -4 -10 -10z"/>
<path d="M5190 510 c0 -5 5 -10 10 -10 6 0 10 5 10 10 0 6 -4 10 -10 10 -5 0
-10 -4 -10 -10z"/>
<path d="M5335 510 c3 -5 8 -10 11 -10 2 0 4 5 4 10 0 6 -5 10 -11 10 -5 0 -7
-4 -4 -10z"/>
<path d="M5405 510 c3 -5 8 -10 11 -10 2 0 4 5 4 10 0 6 -5 10 -11 10 -5 0 -7
-4 -4 -10z"/>
<path d="M5620 509 c0 -5 5 -7 10 -4 6 3 10 8 10 11 0 2 -4 4 -10 4 -5 0 -10
-5 -10 -11z"/>
<path d="M5690 510 c0 -5 5 -10 10 -10 6 0 10 5 10 10 0 6 -4 10 -10 10 -5 0
-10 -4 -10 -10z"/>
<path d="M5830 510 c0 -5 5 -10 10 -10 6 0 10 5 10 10 0 6 -4 10 -10 10 -5 0
-10 -4 -10 -10z"/>
<path d="M5900 510 c0 -5 5 -10 10 -10 6 0 10 5 10 10 0 6 -4 10 -10 10 -5 0
-10 -4 -10 -10z"/>
<path d="M5370 480 c0 -5 5 -10 10 -10 6 0 10 5 10 10 0 6 -4 10 -10 10 -5 0
-10 -4 -10 -10z"/>
<path d="M5440 480 c0 -5 5 -10 10 -10 6 0 10 5 10 10 0 6 -4 10 -10 10 -5 0
-10 -4 -10 -10z"/>
<path d="M5510 480 c0 -5 5 -10 10 -10 6 0 10 5 10 10 0 6 -4 10 -10 10 -5 0
-10 -4 -10 -10z"/>
<path d="M5580 480 c0 -5 5 -10 10 -10 6 0 10 5 10 10 0 6 -4 10 -10 10 -5 0
-10 -4 -10 -10z"/>
<path d="M5650 480 c0 -5 5 -10 10 -10 6 0 10 5 10 10 0 6 -4 10 -10 10 -5 0
-10 -4 -10 -10z"/>
<path d="M5120 450 c0 -5 5 -10 10 -10 6 0 10 5 10 10 0 6 -4 10 -10 10 -5 0
-10 -4 -10 -10z"/>
<path d="M5330 450 c0 -5 5 -10 10 -10 6 0 10 5 10 10 0 6 -4 10 -10 10 -5 0
-10 -4 -10 -10z"/>
<path d="M5405 450 c-3 -5 -1 -10 4 -10 6 0 11 5 11 10 0 6 -2 10 -4 10 -3 0
-8 -4 -11 -10z"/>
<path d="M5760 450 c0 -5 5 -10 10 -10 6 0 10 5 10 10 0 6 -4 10 -10 10 -5 0
-10 -4 -10 -10z"/>
<path d="M5830 450 c0 -5 5 -10 10 -10 6 0 10 5 10 10 0 6 -4 10 -10 10 -5 0
-10 -4 -10 -10z"/>
<path d="M5900 450 c0 -5 5 -10 10 -10 6 0 10 5 10 10 0 6 -4 10 -10 10 -5 0
-10 -4 -10 -10z"/>
<path d="M5370 420 c0 -5 5 -10 11 -10 5 0 7 5 4 10 -3 6 -8 10 -11 10 -2 0
-4 -4 -4 -10z"/>
<path d="M5440 420 c0 -5 5 -10 10 -10 6 0 10 5 10 10 0 6 -4 10 -10 10 -5 0
-10 -4 -10 -10z"/>
<path d="M5510 420 c0 -5 5 -10 10 -10 6 0 10 5 10 10 0 6 -4 10 -10 10 -5 0
-10 -4 -10 -10z"/>
<path d="M5580 420 c0 -5 5 -10 10 -10 6 0 10 5 10 10 0 6 -4 10 -10 10 -5 0
-10 -4 -10 -10z"/>
<path d="M5650 420 c0 -5 5 -10 10 -10 6 0 10 5 10 10 0 6 -4 10 -10 10 -5 0
-10 -4 -10 -10z"/>
<path d="M5795 420 c-3 -5 -1 -10 4 -10 6 0 11 5 11 10 0 6 -2 10 -4 10 -3 0
-8 -4 -11 -10z"/>
<path d="M5050 390 c0 -5 5 -10 11 -10 5 0 7 5 4 10 -3 6 -8 10 -11 10 -2 0
-4 -4 -4 -10z"/>
<path d="M5120 390 c0 -5 5 -10 10 -10 6 0 10 5 10 10 0 6 -4 10 -10 10 -5 0
-10 -4 -10 -10z"/>
<path d="M5335 390 c-3 -5 -1 -10 4 -10 6 0 11 5 11 10 0 6 -2 10 -4 10 -3 0
-8 -4 -11 -10z"/>
<path d="M5405 390 c-3 -5 -1 -10 4 -10 6 0 11 5 11 10 0 6 -2 10 -4 10 -3 0
-8 -4 -11 -10z"/>
<path d="M5620 390 c0 -5 5 -10 11 -10 5 0 7 5 4 10 -3 6 -8 10 -11 10 -2 0
-4 -4 -4 -10z"/>
<path d="M5760 390 c0 -5 5 -10 10 -10 6 0 10 5 10 10 0 6 -4 10 -10 10 -5 0
-10 -4 -10 -10z"/>
<path d="M5830 390 c0 -5 5 -10 10 -10 6 0 10 5 10 10 0 6 -4 10 -10 10 -5 0
-10 -4 -10 -10z"/>
<path d="M5015 360 c-3 -5 -1 -10 4 -10 6 0 11 5 11 10 0 6 -2 10 -4 10 -3 0
-8 -4 -11 -10z"/>
<path d="M5085 360 c-3 -5 -1 -10 4 -10 6 0 11 5 11 10 0 6 -2 10 -4 10 -3 0
-8 -4 -11 -10z"/>
<path d="M5300 360 c0 -5 5 -10 11 -10 5 0 7 5 4 10 -3 6 -8 10 -11 10 -2 0
-4 -4 -4 -10z"/>
<path d="M5370 360 c0 -5 5 -10 11 -10 5 0 7 5 4 10 -3 6 -8 10 -11 10 -2 0
-4 -4 -4 -10z"/>
<path d="M5440 360 c0 -5 5 -10 11 -10 5 0 7 5 4 10 -3 6 -8 10 -11 10 -2 0
-4 -4 -4 -10z"/>
<path d="M5515 360 c-3 -5 -1 -10 4 -10 6 0 11 5 11 10 0 6 -2 10 -4 10 -3 0
-8 -4 -11 -10z"/>
<path d="M5585 360 c-3 -5 -1 -10 4 -10 6 0 11 5 11 10 0 6 -2 10 -4 10 -3 0
-8 -4 -11 -10z"/>
<path d="M5655 360 c-3 -5 -1 -10 4 -10 6 0 11 5 11 10 0 6 -2 10 -4 10 -3 0
-8 -4 -11 -10z"/>
<path d="M5725 360 c-3 -5 -1 -10 4 -10 6 0 11 5 11 10 0 6 -2 10 -4 10 -3 0
-8 -4 -11 -10z"/>
<path d="M5795 360 c-3 -5 -1 -10 4 -10 6 0 11 5 11 10 0 6 -2 10 -4 10 -3 0
-8 -4 -11 -10z"/>
<path d="M5050 330 c0 -5 5 -10 11 -10 5 0 7 5 4 10 -3 6 -8 10 -11 10 -2 0
-4 -4 -4 -10z"/>
<path d="M5335 330 c-3 -5 -1 -10 4 -10 6 0 11 5 11 10 0 6 -2 10 -4 10 -3 0
-8 -4 -11 -10z"/>
<path d="M5405 330 c-3 -5 -1 -10 4 -10 6 0 11 5 11 10 0 6 -2 10 -4 10 -3 0
-8 -4 -11 -10z"/>
<path d="M5620 330 c0 -5 5 -10 11 -10 5 0 7 5 4 10 -3 6 -8 10 -11 10 -2 0
-4 -4 -4 -10z"/>
<path d="M5690 330 c0 -5 5 -10 11 -10 5 0 7 5 4 10 -3 6 -8 10 -11 10 -2 0
-4 -4 -4 -10z"/>
<path d="M5760 330 c0 -5 5 -10 11 -10 5 0 7 5 4 10 -3 6 -8 10 -11 10 -2 0
-4 -4 -4 -10z"/>
<path d="M5300 169 c0 -5 5 -7 10 -4 6 3 10 8 10 11 0 2 -4 4 -10 4 -5 0 -10
-5 -10 -11z"/>
<path d="M5265 140 c3 -5 8 -10 11 -10 2 0 4 5 4 10 0 6 -5 10 -11 10 -5 0 -7
-4 -4 -10z"/>
<path d="M5230 109 c0 -5 5 -7 10 -4 6 3 10 8 10 11 0 2 -4 4 -10 4 -5 0 -10
-5 -10 -11z"/>
<path d="M805 592 c28 -10 51 -26 53 -35 2 -8 -9 -50 -24 -92 -33 -93 -61
-120 -116 -111 -21 4 -38 2 -38 -3 0 -22 77 -29 112 -10 27 14 88 148 88 193
0 42 -27 64 -86 72 -38 4 -38 4 11 -14z"/>
<path d="M676 534 c-22 -87 -14 -94 9 -9 9 36 15 68 13 71 -3 3 -13 -25 -22
-62z"/>
<path d="M480 540 c0 -45 -24 -85 -75 -124 -40 -30 -50 -33 -78 -26 -29 9 -30
8 -13 -5 39 -29 67 -19 129 47 57 62 74 94 63 123 -10 26 -26 16 -26 -15z"/>
</g>
</svg>
